# xmcd
#
# Track frame offsets: 
#        182
#        22967
#        38262
#        57692
#        70345
#        95647
#        119837
#        137677
#        161297
#        186485
#        206510
#        223330
#
# Disc length: 3209 seconds
#
# Revision: 4
# Processed by: cddbd v1.5.2PL0 Copyright (c) Steve Scherf et al.
# Submitted via: ExactAudioCopyFreeDBPlugin 1.0
#
DISCID=b60c870c
DTITLE=Fleetwood Mac - Fleetwood Mac In Chicago
DYEAR=1969
DGENRE=Blues
TTITLE0=Watch Out
TTITLE1=Ooh Baby
TTITLE2=South Indiana - Take 1
TTITLE3=South Indiana - Take 2
TTITLE4=Last Night
TTITLE5=Red Hot Jam  -  feat. Willie Dixon and Buddy Guy
TTITLE6=I'm Worried
TTITLE7=I Held My Baby Last Night
TTITLE8=Madison Blues
TTITLE9=I Can't Hold Out
TTITLE10=I Need Your Love
TTITLE11=I Got The Blues  -  feat. Otis Spann
EXTD=
EXTT0=
EXTT1=YEAR: 1969
EXTT2=YEAR: 1969
EXTT3=YEAR: 1969
EXTT4=YEAR: 1969
EXTT5=YEAR: 1969
EXTT6=YEAR: 1969
EXTT7=YEAR: 1969
EXTT8=YEAR: 1969
EXTT9=YEAR: 1969
EXTT10=YEAR: 1969
EXTT11=YEAR: 1969
PLAYORDER=
